<mxfile host="app.diagrams.net" modified="2021-04-09T15:51:46.778Z" agent="5.0 (Macintosh)" etag="f1Ul5b9B-JpjVrYBmbyn" version="14.5.8" type="github">
  <diagram id="aa2rBTUQDsVSf47YoD2E" name="Page-1">
    <mxGraphModel dx="961" dy="885" grid="1" gridSize="10" guides="1" tooltips="1" connect="1" arrows="1" fold="1" page="1" pageScale="1" pageWidth="3300" pageHeight="4681" math="0" shadow="0">
      <root>
        <mxCell id="0" />
        <mxCell id="1" parent="0" />
        <mxCell id="fEKb2G0TT8NPdeSShL6f-19" value="Médico_SNS" style="shape=table;startSize=30;container=1;collapsible=1;childLayout=tableLayout;fixedRows=1;rowLines=0;fontStyle=0;align=center;resizeLast=1;" parent="1" vertex="1">
          <mxGeometry x="1005" y="120" width="300" height="60" as="geometry">
            <mxRectangle x="1270" y="850" width="70" height="30" as="alternateBounds" />
          </mxGeometry>
        </mxCell>
        <mxCell id="fEKb2G0TT8NPdeSShL6f-20" value="" style="shape=partialRectangle;collapsible=0;dropTarget=0;pointerEvents=0;fillColor=none;top=0;left=0;bottom=1;right=0;points=[[0,0.5],[1,0.5]];portConstraint=eastwest;" parent="fEKb2G0TT8NPdeSShL6f-19" vertex="1">
          <mxGeometry y="30" width="300" height="30" as="geometry" />
        </mxCell>
        <mxCell id="fEKb2G0TT8NPdeSShL6f-21" value="No identificação" style="shape=partialRectangle;connectable=0;fillColor=none;top=0;left=0;bottom=0;right=0;fontStyle=5;overflow=hidden;" parent="fEKb2G0TT8NPdeSShL6f-20" vertex="1">
          <mxGeometry width="100" height="30" as="geometry" />
        </mxCell>
        <mxCell id="fEKb2G0TT8NPdeSShL6f-22" value="Especialidade" style="shape=partialRectangle;connectable=0;fillColor=none;top=0;left=0;bottom=0;right=0;fontStyle=1;overflow=hidden;" parent="fEKb2G0TT8NPdeSShL6f-20" vertex="1">
          <mxGeometry x="100" width="100" height="30" as="geometry" />
        </mxCell>
        <mxCell id="qWOuUd9IXQkD_mmWnko0-10" value="NIF" style="shape=partialRectangle;connectable=0;fillColor=none;top=0;left=0;bottom=0;right=0;fontStyle=5;overflow=hidden;" vertex="1" parent="fEKb2G0TT8NPdeSShL6f-20">
          <mxGeometry x="200" width="100" height="30" as="geometry" />
        </mxCell>
        <mxCell id="fEKb2G0TT8NPdeSShL6f-25" value="Prescrição" style="shape=table;startSize=30;container=1;collapsible=1;childLayout=tableLayout;fixedRows=1;rowLines=0;fontStyle=0;align=center;resizeLast=1;" parent="1" vertex="1">
          <mxGeometry x="920" y="280" width="720" height="60" as="geometry">
            <mxRectangle x="1270" y="850" width="70" height="30" as="alternateBounds" />
          </mxGeometry>
        </mxCell>
        <mxCell id="fEKb2G0TT8NPdeSShL6f-26" value="" style="shape=partialRectangle;collapsible=0;dropTarget=0;pointerEvents=0;fillColor=none;top=0;left=0;bottom=1;right=0;points=[[0,0.5],[1,0.5]];portConstraint=eastwest;" parent="fEKb2G0TT8NPdeSShL6f-25" vertex="1">
          <mxGeometry y="30" width="720" height="30" as="geometry" />
        </mxCell>
        <mxCell id="fEKb2G0TT8NPdeSShL6f-27" value="Nº prescrição" style="shape=partialRectangle;connectable=0;fillColor=none;top=0;left=0;bottom=0;right=0;fontStyle=5;overflow=hidden;" parent="fEKb2G0TT8NPdeSShL6f-26" vertex="1">
          <mxGeometry width="100" height="30" as="geometry" />
        </mxCell>
        <mxCell id="fEKb2G0TT8NPdeSShL6f-28" value="Med_id" style="shape=partialRectangle;connectable=0;fillColor=none;top=0;left=0;bottom=0;right=0;fontStyle=1;overflow=hidden;" parent="fEKb2G0TT8NPdeSShL6f-26" vertex="1">
          <mxGeometry x="100" width="100" height="30" as="geometry" />
        </mxCell>
        <mxCell id="fEKb2G0TT8NPdeSShL6f-29" value="NIF_Pessoa" style="shape=partialRectangle;connectable=0;fillColor=none;top=0;left=0;bottom=0;right=0;fontStyle=1;overflow=hidden;" parent="fEKb2G0TT8NPdeSShL6f-26" vertex="1">
          <mxGeometry x="200" width="100" height="30" as="geometry" />
        </mxCell>
        <mxCell id="fEKb2G0TT8NPdeSShL6f-31" value="Farmacia_process" style="shape=partialRectangle;connectable=0;fillColor=none;top=0;left=0;bottom=0;right=0;fontStyle=1;overflow=hidden;" parent="fEKb2G0TT8NPdeSShL6f-26" vertex="1">
          <mxGeometry x="300" width="120" height="30" as="geometry" />
        </mxCell>
        <mxCell id="fEKb2G0TT8NPdeSShL6f-32" value="Data_process" style="shape=partialRectangle;connectable=0;fillColor=none;top=0;left=0;bottom=0;right=0;fontStyle=1;overflow=hidden;" parent="fEKb2G0TT8NPdeSShL6f-26" vertex="1">
          <mxGeometry x="420" width="150" height="30" as="geometry" />
        </mxCell>
        <mxCell id="qWOuUd9IXQkD_mmWnko0-1" value="Data" style="shape=partialRectangle;connectable=0;fillColor=none;top=0;left=0;bottom=0;right=0;fontStyle=1;overflow=hidden;" vertex="1" parent="fEKb2G0TT8NPdeSShL6f-26">
          <mxGeometry x="570" width="150" height="30" as="geometry" />
        </mxCell>
        <mxCell id="fEKb2G0TT8NPdeSShL6f-34" value="Paciente" style="shape=table;startSize=30;container=1;collapsible=1;childLayout=tableLayout;fixedRows=1;rowLines=0;fontStyle=0;align=center;resizeLast=1;" parent="1" vertex="1">
          <mxGeometry x="970" y="410" width="480" height="60" as="geometry">
            <mxRectangle x="1270" y="850" width="70" height="30" as="alternateBounds" />
          </mxGeometry>
        </mxCell>
        <mxCell id="fEKb2G0TT8NPdeSShL6f-35" value="" style="shape=partialRectangle;collapsible=0;dropTarget=0;pointerEvents=0;fillColor=none;top=0;left=0;bottom=1;right=0;points=[[0,0.5],[1,0.5]];portConstraint=eastwest;" parent="fEKb2G0TT8NPdeSShL6f-34" vertex="1">
          <mxGeometry y="30" width="480" height="30" as="geometry" />
        </mxCell>
        <mxCell id="fEKb2G0TT8NPdeSShL6f-36" value="No utente" style="shape=partialRectangle;connectable=0;fillColor=none;top=0;left=0;bottom=0;right=0;fontStyle=5;overflow=hidden;" parent="fEKb2G0TT8NPdeSShL6f-35" vertex="1">
          <mxGeometry width="100" height="30" as="geometry" />
        </mxCell>
        <mxCell id="fEKb2G0TT8NPdeSShL6f-37" value="Endereço" style="shape=partialRectangle;connectable=0;fillColor=none;top=0;left=0;bottom=0;right=0;fontStyle=1;overflow=hidden;" parent="fEKb2G0TT8NPdeSShL6f-35" vertex="1">
          <mxGeometry x="100" width="100" height="30" as="geometry" />
        </mxCell>
        <mxCell id="fEKb2G0TT8NPdeSShL6f-39" value="Data de nascimento" style="shape=partialRectangle;connectable=0;fillColor=none;top=0;left=0;bottom=0;right=0;fontStyle=1;overflow=hidden;" parent="fEKb2G0TT8NPdeSShL6f-35" vertex="1">
          <mxGeometry x="200" width="180" height="30" as="geometry" />
        </mxCell>
        <mxCell id="qWOuUd9IXQkD_mmWnko0-8" value="NIF" style="shape=partialRectangle;connectable=0;fillColor=none;top=0;left=0;bottom=0;right=0;fontStyle=5;overflow=hidden;" vertex="1" parent="fEKb2G0TT8NPdeSShL6f-35">
          <mxGeometry x="380" width="100" height="30" as="geometry" />
        </mxCell>
        <mxCell id="fEKb2G0TT8NPdeSShL6f-40" value="Farmácia" style="shape=table;startSize=30;container=1;collapsible=1;childLayout=tableLayout;fixedRows=1;rowLines=0;fontStyle=0;align=center;resizeLast=1;" parent="1" vertex="1">
          <mxGeometry x="1070" y="550" width="400" height="60" as="geometry">
            <mxRectangle x="1270" y="850" width="70" height="30" as="alternateBounds" />
          </mxGeometry>
        </mxCell>
        <mxCell id="fEKb2G0TT8NPdeSShL6f-41" value="" style="shape=partialRectangle;collapsible=0;dropTarget=0;pointerEvents=0;fillColor=none;top=0;left=0;bottom=1;right=0;points=[[0,0.5],[1,0.5]];portConstraint=eastwest;" parent="fEKb2G0TT8NPdeSShL6f-40" vertex="1">
          <mxGeometry y="30" width="400" height="30" as="geometry" />
        </mxCell>
        <mxCell id="fEKb2G0TT8NPdeSShL6f-42" value="Telefone" style="shape=partialRectangle;connectable=0;fillColor=none;top=0;left=0;bottom=0;right=0;fontStyle=1;overflow=hidden;" parent="fEKb2G0TT8NPdeSShL6f-41" vertex="1">
          <mxGeometry width="100" height="30" as="geometry" />
        </mxCell>
        <mxCell id="fEKb2G0TT8NPdeSShL6f-43" value="Endereço" style="shape=partialRectangle;connectable=0;fillColor=none;top=0;left=0;bottom=0;right=0;fontStyle=1;overflow=hidden;" parent="fEKb2G0TT8NPdeSShL6f-41" vertex="1">
          <mxGeometry x="100" width="100" height="30" as="geometry" />
        </mxCell>
        <mxCell id="fEKb2G0TT8NPdeSShL6f-44" value="Nome" style="shape=partialRectangle;connectable=0;fillColor=none;top=0;left=0;bottom=0;right=0;fontStyle=1;overflow=hidden;" parent="fEKb2G0TT8NPdeSShL6f-41" vertex="1">
          <mxGeometry x="200" width="100" height="30" as="geometry" />
        </mxCell>
        <mxCell id="qWOuUd9IXQkD_mmWnko0-2" value="NIF" style="shape=partialRectangle;connectable=0;fillColor=none;top=0;left=0;bottom=0;right=0;fontStyle=5;overflow=hidden;" vertex="1" parent="fEKb2G0TT8NPdeSShL6f-41">
          <mxGeometry x="300" width="100" height="30" as="geometry" />
        </mxCell>
        <mxCell id="fEKb2G0TT8NPdeSShL6f-45" value="Vende" style="shape=table;startSize=30;container=1;collapsible=1;childLayout=tableLayout;fixedRows=1;rowLines=0;fontStyle=0;align=center;resizeLast=1;" parent="1" vertex="1">
          <mxGeometry x="1010" y="700" width="520" height="60" as="geometry">
            <mxRectangle x="1270" y="850" width="70" height="30" as="alternateBounds" />
          </mxGeometry>
        </mxCell>
        <mxCell id="fEKb2G0TT8NPdeSShL6f-46" value="" style="shape=partialRectangle;collapsible=0;dropTarget=0;pointerEvents=0;fillColor=none;top=0;left=0;bottom=1;right=0;points=[[0,0.5],[1,0.5]];portConstraint=eastwest;" parent="fEKb2G0TT8NPdeSShL6f-45" vertex="1">
          <mxGeometry y="30" width="520" height="30" as="geometry" />
        </mxCell>
        <mxCell id="fEKb2G0TT8NPdeSShL6f-47" value="Formula_Farmaco" style="shape=partialRectangle;connectable=0;fillColor=none;top=0;left=0;bottom=0;right=0;fontStyle=5;overflow=hidden;" parent="fEKb2G0TT8NPdeSShL6f-46" vertex="1">
          <mxGeometry width="130" height="30" as="geometry" />
        </mxCell>
        <mxCell id="fEKb2G0TT8NPdeSShL6f-49" value="Nº_Registo Farmaceutica_Farmaco" style="shape=partialRectangle;connectable=0;fillColor=none;top=0;left=0;bottom=0;right=0;fontStyle=5;overflow=hidden;" parent="fEKb2G0TT8NPdeSShL6f-46" vertex="1">
          <mxGeometry x="130" width="240" height="30" as="geometry" />
        </mxCell>
        <mxCell id="qWOuUd9IXQkD_mmWnko0-14" value="NIF_Farmácia" style="shape=partialRectangle;connectable=0;fillColor=none;top=0;left=0;bottom=0;right=0;fontStyle=5;overflow=hidden;" vertex="1" parent="fEKb2G0TT8NPdeSShL6f-46">
          <mxGeometry x="370" width="150" height="30" as="geometry" />
        </mxCell>
        <mxCell id="fEKb2G0TT8NPdeSShL6f-51" value="Prescrições_Envolve_Fármacos" style="shape=table;startSize=30;container=1;collapsible=1;childLayout=tableLayout;fixedRows=1;rowLines=0;fontStyle=0;align=center;resizeLast=1;" parent="1" vertex="1">
          <mxGeometry x="1025" y="830" width="485" height="60" as="geometry">
            <mxRectangle x="1270" y="850" width="70" height="30" as="alternateBounds" />
          </mxGeometry>
        </mxCell>
        <mxCell id="fEKb2G0TT8NPdeSShL6f-52" value="" style="shape=partialRectangle;collapsible=0;dropTarget=0;pointerEvents=0;fillColor=none;top=0;left=0;bottom=1;right=0;points=[[0,0.5],[1,0.5]];portConstraint=eastwest;" parent="fEKb2G0TT8NPdeSShL6f-51" vertex="1">
          <mxGeometry y="30" width="485" height="30" as="geometry" />
        </mxCell>
        <mxCell id="fEKb2G0TT8NPdeSShL6f-53" value="No_prescrição" style="shape=partialRectangle;connectable=0;fillColor=none;top=0;left=0;bottom=0;right=0;fontStyle=5;overflow=hidden;" parent="fEKb2G0TT8NPdeSShL6f-52" vertex="1">
          <mxGeometry width="100" height="30" as="geometry" />
        </mxCell>
        <mxCell id="fEKb2G0TT8NPdeSShL6f-54" value="Formula_farmaco" style="shape=partialRectangle;connectable=0;fillColor=none;top=0;left=0;bottom=0;right=0;fontStyle=5;overflow=hidden;" parent="fEKb2G0TT8NPdeSShL6f-52" vertex="1">
          <mxGeometry x="100" width="135" height="30" as="geometry" />
        </mxCell>
        <mxCell id="fEKb2G0TT8NPdeSShL6f-55" value="Nº_Registo Farmaceutica_Farmaco" style="shape=partialRectangle;connectable=0;fillColor=none;top=0;left=0;bottom=0;right=0;fontStyle=5;overflow=hidden;" parent="fEKb2G0TT8NPdeSShL6f-52" vertex="1">
          <mxGeometry x="235" width="250" height="30" as="geometry" />
        </mxCell>
        <mxCell id="fEKb2G0TT8NPdeSShL6f-56" value="Fármaco" style="shape=table;startSize=30;container=1;collapsible=1;childLayout=tableLayout;fixedRows=1;rowLines=0;fontStyle=0;align=center;resizeLast=1;" parent="1" vertex="1">
          <mxGeometry x="1035" y="940" width="390" height="60" as="geometry">
            <mxRectangle x="1270" y="850" width="70" height="30" as="alternateBounds" />
          </mxGeometry>
        </mxCell>
        <mxCell id="fEKb2G0TT8NPdeSShL6f-57" value="" style="shape=partialRectangle;collapsible=0;dropTarget=0;pointerEvents=0;fillColor=none;top=0;left=0;bottom=1;right=0;points=[[0,0.5],[1,0.5]];portConstraint=eastwest;" parent="fEKb2G0TT8NPdeSShL6f-56" vertex="1">
          <mxGeometry y="30" width="390" height="30" as="geometry" />
        </mxCell>
        <mxCell id="fEKb2G0TT8NPdeSShL6f-58" value="Formula" style="shape=partialRectangle;connectable=0;fillColor=none;top=0;left=0;bottom=0;right=0;fontStyle=5;overflow=hidden;" parent="fEKb2G0TT8NPdeSShL6f-57" vertex="1">
          <mxGeometry width="100" height="30" as="geometry" />
        </mxCell>
        <mxCell id="fEKb2G0TT8NPdeSShL6f-59" value="Nome Comercial" style="shape=partialRectangle;connectable=0;fillColor=none;top=0;left=0;bottom=0;right=0;fontStyle=1;overflow=hidden;" parent="fEKb2G0TT8NPdeSShL6f-57" vertex="1">
          <mxGeometry x="100" width="100" height="30" as="geometry" />
        </mxCell>
        <mxCell id="fEKb2G0TT8NPdeSShL6f-60" value="Nº_Registo Farmaceutica" style="shape=partialRectangle;connectable=0;fillColor=none;top=0;left=0;bottom=0;right=0;fontStyle=5;overflow=hidden;" parent="fEKb2G0TT8NPdeSShL6f-57" vertex="1">
          <mxGeometry x="200" width="190" height="30" as="geometry" />
        </mxCell>
        <mxCell id="fEKb2G0TT8NPdeSShL6f-61" value="Farmaceutica" style="shape=table;startSize=30;container=1;collapsible=1;childLayout=tableLayout;fixedRows=1;rowLines=0;fontStyle=0;align=center;resizeLast=1;" parent="1" vertex="1">
          <mxGeometry x="980" y="1070" width="580" height="60" as="geometry">
            <mxRectangle x="1270" y="850" width="70" height="30" as="alternateBounds" />
          </mxGeometry>
        </mxCell>
        <mxCell id="fEKb2G0TT8NPdeSShL6f-62" value="" style="shape=partialRectangle;collapsible=0;dropTarget=0;pointerEvents=0;fillColor=none;top=0;left=0;bottom=1;right=0;points=[[0,0.5],[1,0.5]];portConstraint=eastwest;" parent="fEKb2G0TT8NPdeSShL6f-61" vertex="1">
          <mxGeometry y="30" width="580" height="30" as="geometry" />
        </mxCell>
        <mxCell id="fEKb2G0TT8NPdeSShL6f-63" value="Nº_Registo_Nacional" style="shape=partialRectangle;connectable=0;fillColor=none;top=0;left=0;bottom=0;right=0;fontStyle=5;overflow=hidden;" parent="fEKb2G0TT8NPdeSShL6f-62" vertex="1">
          <mxGeometry width="170" height="30" as="geometry" />
        </mxCell>
        <mxCell id="fEKb2G0TT8NPdeSShL6f-64" value="Telefone" style="shape=partialRectangle;connectable=0;fillColor=none;top=0;left=0;bottom=0;right=0;fontStyle=1;overflow=hidden;" parent="fEKb2G0TT8NPdeSShL6f-62" vertex="1">
          <mxGeometry x="170" width="90" height="30" as="geometry" />
        </mxCell>
        <mxCell id="fEKb2G0TT8NPdeSShL6f-65" value="Nome" style="shape=partialRectangle;connectable=0;fillColor=none;top=0;left=0;bottom=0;right=0;fontStyle=1;overflow=hidden;" parent="fEKb2G0TT8NPdeSShL6f-62" vertex="1">
          <mxGeometry x="260" width="140" height="30" as="geometry" />
        </mxCell>
        <mxCell id="fEKb2G0TT8NPdeSShL6f-66" value="Endereço" style="shape=partialRectangle;connectable=0;fillColor=none;top=0;left=0;bottom=0;right=0;fontStyle=1;overflow=hidden;" parent="fEKb2G0TT8NPdeSShL6f-62" vertex="1">
          <mxGeometry x="400" width="180" height="30" as="geometry" />
        </mxCell>
        <mxCell id="fEKb2G0TT8NPdeSShL6f-69" value="" style="edgeStyle=segmentEdgeStyle;endArrow=classic;html=1;entryX=0.125;entryY=1.067;entryDx=0;entryDy=0;entryPerimeter=0;" parent="1" edge="1" target="fEKb2G0TT8NPdeSShL6f-20">
          <mxGeometry width="50" height="50" relative="1" as="geometry">
            <mxPoint x="1055" y="311" as="sourcePoint" />
            <mxPoint x="1120" y="180" as="targetPoint" />
            <Array as="points">
              <mxPoint x="1055" y="311" />
            </Array>
          </mxGeometry>
        </mxCell>
        <mxCell id="fEKb2G0TT8NPdeSShL6f-70" value="" style="edgeStyle=elbowEdgeStyle;elbow=vertical;endArrow=classic;html=1;exitX=0;exitY=0.5;exitDx=0;exitDy=0;" parent="1" source="fEKb2G0TT8NPdeSShL6f-52" edge="1">
          <mxGeometry width="50" height="50" relative="1" as="geometry">
            <mxPoint x="1000" y="880" as="sourcePoint" />
            <mxPoint x="950" y="340" as="targetPoint" />
            <Array as="points">
              <mxPoint x="970" y="880" />
            </Array>
          </mxGeometry>
        </mxCell>
        <mxCell id="fEKb2G0TT8NPdeSShL6f-72" value="" style="edgeStyle=segmentEdgeStyle;endArrow=classic;html=1;entryX=0;entryY=0.5;entryDx=0;entryDy=0;" parent="1" edge="1" target="qWOuUd9IXQkD_mmWnko0-4">
          <mxGeometry width="50" height="50" relative="1" as="geometry">
            <mxPoint x="1160" y="340" as="sourcePoint" />
            <mxPoint x="1020" y="470" as="targetPoint" />
            <Array as="points">
              <mxPoint x="1160" y="360" />
              <mxPoint x="890" y="360" />
              <mxPoint x="890" y="245" />
            </Array>
          </mxGeometry>
        </mxCell>
        <mxCell id="fEKb2G0TT8NPdeSShL6f-73" value="" style="edgeStyle=segmentEdgeStyle;endArrow=classic;html=1;exitX=0.503;exitY=1;exitDx=0;exitDy=0;exitPerimeter=0;entryX=1;entryY=0.5;entryDx=0;entryDy=0;" parent="1" source="fEKb2G0TT8NPdeSShL6f-26" edge="1" target="fEKb2G0TT8NPdeSShL6f-41">
          <mxGeometry width="50" height="50" relative="1" as="geometry">
            <mxPoint x="1563" y="360" as="sourcePoint" />
            <mxPoint x="1410" y="610" as="targetPoint" />
            <Array as="points">
              <mxPoint x="1282" y="360" />
              <mxPoint x="1590" y="360" />
              <mxPoint x="1590" y="600" />
              <mxPoint x="1490" y="600" />
              <mxPoint x="1490" y="595" />
            </Array>
          </mxGeometry>
        </mxCell>
        <mxCell id="fEKb2G0TT8NPdeSShL6f-74" value="" style="edgeStyle=segmentEdgeStyle;endArrow=classic;html=1;exitX=0.13;exitY=1.033;exitDx=0;exitDy=0;exitPerimeter=0;entryX=0;entryY=0.5;entryDx=0;entryDy=0;" parent="1" source="fEKb2G0TT8NPdeSShL6f-46" edge="1" target="fEKb2G0TT8NPdeSShL6f-57">
          <mxGeometry width="50" height="50" relative="1" as="geometry">
            <mxPoint x="1090" y="810" as="sourcePoint" />
            <mxPoint x="1085" y="610" as="targetPoint" />
            <Array as="points">
              <mxPoint x="1078" y="800" />
              <mxPoint x="1000" y="800" />
              <mxPoint x="1000" y="985" />
            </Array>
          </mxGeometry>
        </mxCell>
        <mxCell id="fEKb2G0TT8NPdeSShL6f-77" value="" style="endArrow=classic;html=1;exitX=0.366;exitY=1.02;exitDx=0;exitDy=0;exitPerimeter=0;entryX=0.126;entryY=0.467;entryDx=0;entryDy=0;entryPerimeter=0;" parent="1" source="fEKb2G0TT8NPdeSShL6f-52" target="fEKb2G0TT8NPdeSShL6f-56" edge="1">
          <mxGeometry width="50" height="50" relative="1" as="geometry">
            <mxPoint x="1270" y="780" as="sourcePoint" />
            <mxPoint x="1320" y="730" as="targetPoint" />
            <Array as="points">
              <mxPoint x="1168" y="920" />
              <mxPoint x="1084" y="920" />
            </Array>
          </mxGeometry>
        </mxCell>
        <mxCell id="fEKb2G0TT8NPdeSShL6f-80" value="" style="edgeStyle=segmentEdgeStyle;endArrow=classic;html=1;" parent="1" source="fEKb2G0TT8NPdeSShL6f-46" edge="1">
          <mxGeometry width="50" height="50" relative="1" as="geometry">
            <mxPoint x="1310" y="800" as="sourcePoint" />
            <mxPoint x="1430" y="980" as="targetPoint" />
            <Array as="points">
              <mxPoint x="1269" y="810" />
              <mxPoint x="1629" y="810" />
              <mxPoint x="1629" y="980" />
            </Array>
          </mxGeometry>
        </mxCell>
        <mxCell id="fEKb2G0TT8NPdeSShL6f-82" value="" style="edgeStyle=segmentEdgeStyle;endArrow=classic;html=1;exitX=0.793;exitY=1.129;exitDx=0;exitDy=0;exitPerimeter=0;" parent="1" source="fEKb2G0TT8NPdeSShL6f-57" edge="1">
          <mxGeometry width="50" height="50" relative="1" as="geometry">
            <mxPoint x="1350" y="1030" as="sourcePoint" />
            <mxPoint x="1090" y="1100" as="targetPoint" />
            <Array as="points">
              <mxPoint x="1344" y="1050" />
              <mxPoint x="1090" y="1050" />
            </Array>
          </mxGeometry>
        </mxCell>
        <mxCell id="fEKb2G0TT8NPdeSShL6f-83" value="&lt;span style=&quot;font-size: 32px&quot;&gt;Exercício 3.3-2.2&lt;/span&gt;" style="text;html=1;strokeColor=none;fillColor=none;align=center;verticalAlign=middle;whiteSpace=wrap;rounded=0;" parent="1" vertex="1">
          <mxGeometry x="660" y="60" width="300" height="50" as="geometry" />
        </mxCell>
        <mxCell id="fEKb2G0TT8NPdeSShL6f-84" value="&lt;font style=&quot;font-size: 20px&quot;&gt;P4G7&lt;br&gt;- Álvaro Freixo 93116&lt;br&gt;- João Machado 89132&lt;br&gt;&lt;/font&gt;" style="text;html=1;strokeColor=none;fillColor=none;align=center;verticalAlign=middle;whiteSpace=wrap;rounded=0;" parent="1" vertex="1">
          <mxGeometry x="685" y="110" width="250" height="110" as="geometry" />
        </mxCell>
        <mxCell id="qWOuUd9IXQkD_mmWnko0-3" value="Pessoa" style="shape=table;startSize=30;container=1;collapsible=1;childLayout=tableLayout;fixedRows=1;rowLines=0;fontStyle=0;align=center;resizeLast=1;" vertex="1" parent="1">
          <mxGeometry x="1160" y="200" width="200" height="60" as="geometry">
            <mxRectangle x="1270" y="850" width="70" height="30" as="alternateBounds" />
          </mxGeometry>
        </mxCell>
        <mxCell id="qWOuUd9IXQkD_mmWnko0-4" value="" style="shape=partialRectangle;collapsible=0;dropTarget=0;pointerEvents=0;fillColor=none;top=0;left=0;bottom=1;right=0;points=[[0,0.5],[1,0.5]];portConstraint=eastwest;" vertex="1" parent="qWOuUd9IXQkD_mmWnko0-3">
          <mxGeometry y="30" width="200" height="30" as="geometry" />
        </mxCell>
        <mxCell id="qWOuUd9IXQkD_mmWnko0-5" value="NIF" style="shape=partialRectangle;connectable=0;fillColor=none;top=0;left=0;bottom=0;right=0;fontStyle=5;overflow=hidden;" vertex="1" parent="qWOuUd9IXQkD_mmWnko0-4">
          <mxGeometry width="100" height="30" as="geometry" />
        </mxCell>
        <mxCell id="qWOuUd9IXQkD_mmWnko0-6" value="Nome" style="shape=partialRectangle;connectable=0;fillColor=none;top=0;left=0;bottom=0;right=0;fontStyle=1;overflow=hidden;" vertex="1" parent="qWOuUd9IXQkD_mmWnko0-4">
          <mxGeometry x="100" width="100" height="30" as="geometry" />
        </mxCell>
        <mxCell id="qWOuUd9IXQkD_mmWnko0-9" value="" style="endArrow=classic;html=1;exitX=1;exitY=0.5;exitDx=0;exitDy=0;entryX=0.305;entryY=1.067;entryDx=0;entryDy=0;entryPerimeter=0;" edge="1" parent="1" source="fEKb2G0TT8NPdeSShL6f-35" target="qWOuUd9IXQkD_mmWnko0-4">
          <mxGeometry width="50" height="50" relative="1" as="geometry">
            <mxPoint x="1580" y="450" as="sourcePoint" />
            <mxPoint x="1630" y="400" as="targetPoint" />
            <Array as="points">
              <mxPoint x="1670" y="455" />
              <mxPoint x="1670" y="270" />
              <mxPoint x="1240" y="270" />
            </Array>
          </mxGeometry>
        </mxCell>
        <mxCell id="qWOuUd9IXQkD_mmWnko0-11" value="" style="endArrow=classic;html=1;exitX=0.883;exitY=1.067;exitDx=0;exitDy=0;exitPerimeter=0;entryX=0.19;entryY=0.467;entryDx=0;entryDy=0;entryPerimeter=0;" edge="1" parent="1" source="fEKb2G0TT8NPdeSShL6f-20" target="qWOuUd9IXQkD_mmWnko0-3">
          <mxGeometry width="50" height="50" relative="1" as="geometry">
            <mxPoint x="1380" y="250" as="sourcePoint" />
            <mxPoint x="1430" y="200" as="targetPoint" />
            <Array as="points">
              <mxPoint x="1198" y="190" />
            </Array>
          </mxGeometry>
        </mxCell>
        <mxCell id="qWOuUd9IXQkD_mmWnko0-15" value="" style="endArrow=classic;html=1;exitX=0.853;exitY=0.45;exitDx=0;exitDy=0;exitPerimeter=0;entryX=0.893;entryY=0.967;entryDx=0;entryDy=0;entryPerimeter=0;" edge="1" parent="1" source="fEKb2G0TT8NPdeSShL6f-45" target="fEKb2G0TT8NPdeSShL6f-41">
          <mxGeometry width="50" height="50" relative="1" as="geometry">
            <mxPoint x="1460" y="710" as="sourcePoint" />
            <mxPoint x="1510" y="660" as="targetPoint" />
            <Array as="points">
              <mxPoint x="1457" y="660" />
            </Array>
          </mxGeometry>
        </mxCell>
        <mxCell id="qWOuUd9IXQkD_mmWnko0-16" value="" style="endArrow=classic;html=1;entryX=0.797;entryY=0;entryDx=0;entryDy=0;entryPerimeter=0;" edge="1" parent="1" target="fEKb2G0TT8NPdeSShL6f-57">
          <mxGeometry width="50" height="50" relative="1" as="geometry">
            <mxPoint x="1346" y="891" as="sourcePoint" />
            <mxPoint x="1400" y="890" as="targetPoint" />
          </mxGeometry>
        </mxCell>
      </root>
    </mxGraphModel>
  </diagram>
</mxfile>
